<svg width="65" height="105" viewBox="0 0 65 105" fill="none" xmlns="http://www.w3.org/2000/svg">
<path fill-rule="evenodd" clip-rule="evenodd" d="M2.56355 0.0790081C22.2912 -0.132024 41.9462 0.0796437 61.5285 0.714646C41.5706 0.509335 21.6306 0.721003 1.70898 1.35028C1.85127 0.714646 2.13627 0.290676 2.56355 0.0790081Z" fill="#3D2C32"/>
<path fill-rule="evenodd" clip-rule="evenodd" d="M61.5286 0.714664C61.8136 0.714664 62.0982 0.714664 62.3832 0.714664C63.2378 1.56197 63.9501 2.62158 64.5196 3.89285C64.2427 36.7407 63.9577 69.5822 63.6651 102.417C63.1489 104.031 62.2943 104.883 61.1014 104.959C42.1578 105.067 23.2151 104.959 4.27282 104.642C3.16403 104.495 2.09582 104.177 1.06821 103.688C0.567858 71.3137 0.211505 38.8962 0 6.43541C0.0935748 5.04145 0.378145 3.77018 0.854565 2.62158C0.99685 1.98594 1.28185 1.56197 1.70913 1.3503C21.6307 0.72102 41.5707 0.509352 61.5286 0.714664Z" fill="#2D313D"/>
<path fill-rule="evenodd" clip-rule="evenodd" d="M59.3924 3.89295C61.3177 3.27447 62.2432 4.33408 62.1697 7.07114C59.4543 9.42364 58.5284 8.36403 59.3924 3.89295Z" fill="#6E7685"/>
<path fill-rule="evenodd" clip-rule="evenodd" d="M2.99098 3.89256C5.29574 3.29125 6.00802 4.56252 5.12739 7.70639C2.47397 8.63887 1.76169 7.36759 2.99098 3.89256Z" fill="#6C7789"/>
<path fill-rule="evenodd" clip-rule="evenodd" d="M9.8274 12.1562C16.6652 12.0501 23.5017 12.1562 30.3369 12.474C30.798 13.0817 31.2962 13.6112 31.8324 14.0631C32.1174 39.7003 32.1174 65.3382 31.8324 90.9754C31.4765 91.9288 30.9779 92.6725 30.3369 93.2001C23.5004 93.626 16.6639 93.626 9.8274 93.2001C9.32876 92.4564 8.83055 91.719 8.33191 90.9754C8.04691 65.5498 8.04691 40.1243 8.33191 14.6988C8.91985 13.9328 9.41806 13.0855 9.8274 12.1562Z" fill="#9FAAB6"/>
<path fill-rule="evenodd" clip-rule="evenodd" d="M10.6821 17.2411C12.6728 16.9328 13.2423 18.098 12.3912 20.7371C10.3522 21.252 9.78262 20.0869 10.6821 17.2411Z" fill="#717E8C"/>
<path fill-rule="evenodd" clip-rule="evenodd" d="M27.7733 17.2411C29.764 16.9328 30.3336 18.098 29.4824 20.7371C27.6733 20.9069 27.1037 19.7417 27.7733 17.2411Z" fill="#707E89"/>
<path fill-rule="evenodd" clip-rule="evenodd" d="M15.4559 17.8516C18.6278 17.8516 21.7997 17.8516 24.9716 17.8516C25.0473 39.6279 24.9716 61.3993 24.7451 83.1626C21.5732 85.3391 18.4013 85.3391 15.2294 83.1626C14.861 61.2703 14.9362 39.4989 15.4559 17.8516Z" fill="#EDF3F9"/>
<path fill-rule="evenodd" clip-rule="evenodd" d="M19 20.8268C19.6665 20.8268 20.3335 20.8268 21 20.8268C21 40.1667 21 59.5046 21 78.8444C20.3335 78.8444 19.6665 78.8444 19 78.8444C19 59.5046 19 40.1667 19 20.8268Z" fill="#21272E"/>
<path fill-rule="evenodd" clip-rule="evenodd" d="M64.5196 3.8927C64.9465 35.9905 65.0887 68.1964 64.9469 100.51C65.0204 101.139 64.8777 101.565 64.5196 101.781C64.2346 101.991 63.95 102.207 63.665 102.417C63.9577 69.5821 64.2427 36.7406 64.5196 3.8927Z" fill="#3C2930"/>
<path fill-rule="evenodd" clip-rule="evenodd" d="M28.2005 85.2544C28.77 85.2544 29.34 85.2544 29.9096 85.2544C29.9096 86.5257 29.9096 87.7969 29.9096 89.0682C29.1973 89.0682 28.4855 89.0682 27.7732 89.0682C27.6984 87.7207 27.8411 86.4494 28.2005 85.2544Z" fill="#717C88"/>
<path fill-rule="evenodd" clip-rule="evenodd" d="M10.6821 85.2545C12.6728 84.9431 13.2423 86.1126 12.3912 88.7505C10.3522 89.2654 9.78262 88.1022 10.6821 85.2545Z" fill="#707C89"/>
<path fill-rule="evenodd" clip-rule="evenodd" d="M2.99096 96.696C5.54953 96.7977 6.11909 98.3868 4.70009 101.463C2.09281 101.603 1.52282 100.014 2.99096 96.696Z" fill="#6C7381"/>
</svg>
